<?xml version="1.0" standalone="no"?><!DOCTYPE svg PUBLIC "-//W3C//DTD SVG 1.1//EN" "http://www.w3.org/Graphics/SVG/1.1/DTD/svg11.dtd"><svg t="1764199593507" class="icon" viewBox="0 0 1225 1024" version="1.1" xmlns="http://www.w3.org/2000/svg" p-id="5484" data-darkreader-inline-fill="" width="38.28125" height="32" xmlns:xlink="http://www.w3.org/1999/xlink"><path d="M433.376552 303.353116" fill="#C63232" p-id="5485" data-darkreader-inline-fill="" style="--darkreader-inline-fill: var(--darkreader-text-c63232, #d24c4c);"></path><path d="M612.779157 356.229453c1.151762 0.020941 2.261641 0.104706 4.062578 0.272235 4.355754 0.335058 8.187979-2.97364 8.460214-7.350334 0.335058-4.376695-2.97364-8.187979-7.308452-8.460214-1.86376-0.146588-3.057404-0.251293-4.334813-0.293176-4.355754-0.251293-8.104215 3.057404-8.376449 7.413158C605.051882 352.187816 608.402462 355.978159 612.779157 356.229453z" fill="#C63232" p-id="5486" data-darkreader-inline-fill="" style="--darkreader-inline-fill: var(--darkreader-text-c63232, #d24c4c);"></path><path d="M609.009755 131.321786c-18.511953 0-33.568621 15.035727-33.568621 33.589562 0 18.511953 15.056668 33.54768 33.568621 33.54768 18.511953 0 33.589562-15.035727 33.589562-33.54768C642.578376 146.336571 627.521708 131.321786 609.009755 131.321786zM609.009755 183.569889c-10.282092 0-18.6376-8.376449-18.6376-18.658541 0-10.323974 8.334567-18.679482 18.6376-18.679482 10.323974 0 18.679482 8.355508 18.679482 18.679482C627.668296 175.172498 619.312788 183.569889 609.009755 183.569889z" fill="#C63232" p-id="5487" data-darkreader-inline-fill="" style="--darkreader-inline-fill: var(--darkreader-text-c63232, #d24c4c);"></path><path d="M612.423158 193.160924c-1.214585 2.198818-2.42917 4.544224-3.685638 6.596454-1.256467-2.05223-2.471053-4.397636-3.706579-6.596454l3.706579-2.05223L612.423158 193.160924z" fill="#C63232" p-id="5488" data-darkreader-inline-fill="" style="--darkreader-inline-fill: var(--darkreader-text-c63232, #d24c4c);"></path><path d="M922.519315 810.840303c0.209411-1.277409 0.439764-2.512935 0.439764-3.978813l0-112.035011c14.428434-2.115053 58.844557-10.470562 60.519847-30.57404 0 0 10.470562-17.611485-57.58809-33.086975l-0.209411-0.230352c-11.93644-14.868198-31.642038-26.783697-55.493977-36.207203l-3.35058-34.343443c16.983251-5.02587 56.541034-19.496186 59.26338-45.463179 0 0 9.004683-42.698951-143.237285-63.430663l-2.512935-28.689339-0.209411-1.047056-2.115053-24.291703c14.889139-3.559991 70.173705-19.056422 68.289004-51.096341 0 0 2.931757-44.395182-111.8256-64.917483-93.627763-37.903434-111.8256-98.423281-111.8256-98.423281l-13.821142 8.167038 3.559991 1.884701c-1.256467 2.303524-2.303524 4.607047-3.559991 6.70116 22.197591 38.322256 50.677519 60.310436 75.388045 75.178634-21.778768-2.303524-46.908117-3.769402-75.178634-4.188225 0 0-32.668153-0.837645-73.712755 2.931757 24.082292-14.868198 51.724575-36.646966 73.503344-73.922166-1.465879-2.094112-2.722346-4.397636-3.769402-6.70116l3.769402-1.884701-13.821142-8.167038c0 0-18.009366 58.425735-107.009141 96.53858-52.56222 8.606802-104.705618 28.061106-116.223236 62.823371 0 0-9.423506 32.018978 58.844557 54.865744l-5.444692 55.473036c-70.362175 10.051739-135.698481 28.479928-139.677294 62.195137 0 0-4.397636 25.966993 59.682202 45.023416l-3.559991 35.59991 0 0.418822c0 0.230352 0 0.439764 0.209411 0.837645-32.039919 12.774085-47.745762 25.757582-55.075155 33.296386-34.134031 7.350334-56.959856 17.381133-56.122211 30.364629 0 0-2.722346 23.66347 62.404548 33.296386l0 112.684186c0 0.837645 0 1.444938 0.209411 2.282582-168.576044 37.08673-165.016053 97.187754-165.016053 97.187754-1.884701 9.632917 9.004683 11.727029 9.004683 11.727029 7.538804-2.722346 9.214094-11.727029 9.214094-11.727029 32.039919-108.28655 470.965868-108.684431 470.965868-108.684431 442.067118 10.679973 447.721221 108.684431 447.721221 108.684431-1.905642 5.444692 8.56492 8.355508 8.56492 8.355508 7.957627-0.418822 8.585861-8.355508 8.585861-8.355508C1074.13305 858.795476 1005.048283 829.268492 922.519315 810.840303zM392.080656 355.370866c-3.141169-4.397636-4.607047-8.585861-2.512935-12.983497 0 0 33.086975-55.075155 219.462975-52.143398 0 0 199.98773-3.978813 220.091208 53.818687 0 0 4.607047 5.654103-4.188225 14.637845-8.167038-58.195382-211.295937-59.242438-211.295937-59.242438C432.078202 302.578294 398.362993 338.827379 392.080656 355.370866zM407.158265 370.636946c10.051739-49.21164 207.317123-50.468108 207.317123-50.468108 176.743083 2.115053 196.218328 37.2752 196.63715 51.096341-8.167038 4.188225-19.663715 5.654103-35.809321 10.470562-10.889384-6.072926-49.002229-24.501115-120.181108-31.411685l0-1.047056c0-4.397636-2.952698-7.957627-6.910571-8.795272l-13.402319 0c-3.35058 0-6.282337 3.769402-6.282337 8.355508s2.931757 8.376449 6.282337 8.376449l3.53905 0 0 85.209432-58.635146 0L579.713123 357.255568l12.983497 0c5.444692 0 10.051739-3.790343 10.051739-8.376449s-4.607047-8.355508-10.051739-8.355508l-21.359946 0c-4.607047 0-8.585861 3.957872-8.585861 8.795272l0 0.418822c-66.383362 4.397636-108.056197 24.501115-123.343218 33.526739 0.418822 0.209411 1.047056 0.209411 1.465879 0.607293-0.209411 0-0.209411-0.209411-0.628234-0.209411-0.837645 0-1.465879 0-2.094112 0.209411 0.418822-0.209411 0.837645-0.607293 1.256467-0.607293C432.078202 380.269862 418.25706 377.756928 407.158265 370.636946zM764.413833 432.622671l1.465879 16.752899c-30.804393-3.559991-67.221007-6.282337-110.778544-7.748216l0-36.018732C671.854067 407.283912 716.27019 412.728604 764.413833 432.622671zM655.122109 388.667253l0-21.380887c17.799955 1.67529 59.870672 7.748216 105.752674 26.176404l1.884701 19.496186C743.284239 404.980388 708.312563 393.46277 655.122109 388.667253zM562.771754 403.535451l0 37.903434c-30.992863 1.047056-76.016278 3.559991-120.620872 9.025624l1.256467-11.74797 0-0.209411C475.84515 411.681548 547.065911 404.770977 562.771754 403.535451zM443.59582 384.667498c0.837645 0.439764 1.256467 0.628234 1.256467 0.628234l-0.209411 0.209411C444.224054 385.295732 443.805231 385.107262 443.59582 384.667498zM445.689932 416.079184l1.465879-16.752899c34.134031-24.291703 100.726804-30.992863 115.595002-32.24933l0 19.056422C504.115667 389.902779 464.536943 406.236856 445.689932 416.079184zM302.033825 515.151639c0 0 4.607047-44.604593 265.533446-54.467862 11.727029-0.418822 24.291703-0.837645 37.2752-1.047056 0 0 16.752899 0 42.510481 1.047056 77.251805 3.35058 233.472586 14.868198 259.041698 55.9128 0 0-8.376449 19.496186-50.468108 26.616168-86.48684-39.369312-247.942903-39.369312-247.942903-39.369312-165.225465 0-233.284116 26.385816-252.759361 36.646966C339.727847 540.678869 304.756171 529.580073 302.033825 515.151639zM851.110084 586.958752c-102.402094-32.877564-259.669932-28.689339-259.669932-28.689339-114.338535 0.837645-187.841878 14.658786-234.331172 30.364629l4.816458-29.945807c77.482157-37.484611 243.754678-35.59991 243.754678-35.59991 143.656107-0.628234 226.164134 31.621097 244.592323 39.578723L851.110084 586.958752zM594.371909 577.97501c190.564224-4.816458 271.396961 30.971922 297.573366 46.677764-58.006912-9.193153-152.032557-16.543488-304.693348-16.752899 0 0-152.870202 0.439764-258.622876 15.077609C405.713327 574.603489 594.371909 577.97501 594.371909 577.97501zM296.798544 675.958527c-0.418822 0.439764-0.628234 0.628234-1.047056 1.047056 0 0-0.209411 0-0.418822-0.209411-4.397636-0.837645-38.112845-6.282337-43.138714-13.192908 0 0 32.24933-32.458741 338.199145-36.646966 0 0 325.006237 0.837645 376.730812 38.741079 0 0-22.386061 9.214094-46.908117 12.355263 0 0 0 0-0.209411 0-39.997546-30.971922-297.573366-32.018978-297.573366-32.018978-232.655883 1.047056-301.76159 18.218777-322.283891 28.061106C298.892656 674.723 297.8456 675.330293 296.798544 675.958527zM793.961758 790.506473 793.961758 790.506473C793.752347 788.621771 795.197284 791.783881 793.961758 790.506473 794.799403 790.506473 793.124113 790.506473 793.961758 790.506473l4.795517-68.268063 0-0.628234c0-4.167284-2.722346-7.517863-6.491748-8.56492l-0.837645 0-1.047056-0.230352-11.308207-0.837645c-3.559991-0.209411-6.512689 3.35058-6.910571 7.957627l0 0.837645c0 4.188225 2.282582 7.748216 5.654103 8.187979l3.559991 0.209411-4.167284 57.58809 0 1.884701c-20.731712-1.884701-40.43731-3.35058-58.656087-4.607047l0.230352-1.465879 4.167284-57.797501 12.774085 1.047056 0.837645 0c5.444692 0 9.632917-3.35058 10.030798-7.748216 0.230352-4.607047-3.957872-8.585861-9.842328-9.004683l-21.150535-1.465879c-4.607047-0.418822-8.585861 3.141169-9.004683 8.187979l-4.816458 67.430418c-24.710526-1.67529-45.651649-2.303524-60.708317-2.722346l0-79.995092c0-4.397636-3.141169-7.957627-7.119982-8.795272l-13.402319 0c-3.559991 0-6.282337 3.559991-6.282337 8.167038 0 4.816458 2.722346 8.585861 6.282337 8.585861l3.559991 0 0 71.618643c-5.444692 0-8.376449 0-8.376449 0-17.381133 0-34.134031 0.439764-50.258696 0.837645l0-72.456287 12.983497 0c5.654103 0 10.051739-3.769402 10.051739-8.585861 0-4.607047-4.397636-8.167038-10.051739-8.167038l-21.569357 0c-4.607047 0-8.167038 3.978813-8.167038 8.795272l0 80.832737c-20.522301 0.607293-39.997546 1.444938-58.425735 2.722346l-5.863515-65.336305c-0.418822-4.397636-3.559991-7.538804-7.748216-7.957627l-1.256467 0-11.93644 0.837645c-3.559991 0.209411-6.072926 4.397636-5.654103 9.004683 0.418822 4.397636 3.35058 7.748216 6.491748 7.748216l0.628234 0 3.559991-0.209411 4.816458 56.959856 0 0.837645-58.425735 5.02587 0-1.277409-5.02587-56.520092 12.983497-1.277409c5.444692-0.209411 9.423506-4.188225 9.423506-8.795272l0-0.418822c-0.628234-4.627988-5.235281-7.978568-10.889384-7.350334l-20.731712 1.884701-0.628234 0c-4.607047 0.230352-7.957627 4.627988-7.538804 9.423506l5.654103 65.126894c-33.505798 3.769402-59.891613 8.355508-85.439784 13.590789l-1.67529-114.338535c82.089204-24.898996 308.881572-25.338759 308.881572-25.338759 161.874885-2.282582 263.564981 20.68983 284.736457 25.736641 0 0 0-0.628234 0 0l-0.900468 112.998303c0 0.209411 0 0.209411 0 0.439764C867.130044 797.521749 830.797194 794.485286 793.961758 790.506473z" fill="#C63232" p-id="5489" data-darkreader-inline-fill="" style="--darkreader-inline-fill: var(--darkreader-background-c63232, #a02828);"></path><path d="M612.423158 193.160924c-1.214585 2.198818-2.42917 4.544224-3.685638 6.596454-1.256467-2.05223-2.471053-4.397636-3.706579-6.596454l3.706579-2.05223L612.423158 193.160924z" fill="#C63232" p-id="5490" data-darkreader-inline-fill="" style="--darkreader-inline-fill: var(--darkreader-text-c63232, #d24c4c);"></path><path d="M432.97867 387.138551c0 0.167529-0.146588 0.167529-0.146588 0.293176l-0.125647-0.125647C432.706436 387.30608 432.832082 387.138551 432.97867 387.138551z" fill="#C63232" p-id="5491" data-darkreader-inline-fill="" style="--darkreader-inline-fill: var(--darkreader-text-c63232, #d24c4c);"></path><path d="M441.229473 383.850794c-0.293176 0-0.544469-0.146588-0.837645-0.146588-0.837645-0.125647-1.528702 0-2.198818 0.146588 0.397881-0.272235 0.816704-0.56541 1.235526-0.670116C440.119593 383.452913 440.664063 383.704207 441.229473 383.850794z" fill="#C63232" p-id="5492" data-darkreader-inline-fill="" style="--darkreader-inline-fill: var(--darkreader-text-c63232, #d24c4c);"></path><path d="M444.936052 385.232909l-0.272235 0.293176c-0.418822-0.293176-0.837645-0.544469-1.088938-0.837645C444.370642 385.086321 444.936052 385.232909 444.936052 385.232909z" fill="#C63232" p-id="5493" data-darkreader-inline-fill="" style="--darkreader-inline-fill: var(--darkreader-text-c63232, #d24c4c);"></path><path d="M432.97867 387.138551c0 0.167529-0.146588 0.167529-0.146588 0.293176l-0.125647-0.125647C432.706436 387.30608 432.832082 387.138551 432.97867 387.138551z" fill="#C63232" p-id="5494" data-darkreader-inline-fill="" style="--darkreader-inline-fill: var(--darkreader-text-c63232, #d24c4c);"></path><path d="M439.428536 383.180679c0.691057 0.272235 1.256467 0.523528 1.800937 0.670116-0.293176 0-0.544469-0.146588-0.837645-0.146588-0.837645-0.125647-1.528702 0-2.198818 0.146588C438.590891 383.57856 439.009714 383.285384 439.428536 383.180679z" fill="#C63232" p-id="5495" data-darkreader-inline-fill="" style="--darkreader-inline-fill: var(--darkreader-text-c63232, #d24c4c);"></path><path d="M444.936052 385.232909l-0.272235 0.293176c-0.418822-0.293176-0.837645-0.544469-1.088938-0.837645C444.370642 385.086321 444.936052 385.232909 444.936052 385.232909z" fill="#C63232" p-id="5496" data-darkreader-inline-fill="" style="--darkreader-inline-fill: var(--darkreader-text-c63232, #d24c4c);"></path><path d="M647.352952 460.809424c-0.544469 0.167529-1.088938 0.167529-1.633408 0.167529l-76.288513 0c-0.670116 0-1.214585-0.167529-1.905642-0.272235 11.831735-0.439764 24.333586-0.837645 37.254259-1.10988C604.779648 459.594838 621.637252 459.741426 647.352952 460.809424z" fill="#C63232" p-id="5497" data-darkreader-inline-fill="" style="--darkreader-inline-fill: var(--darkreader-text-c63232, #d24c4c);"></path><path d="M648.211538 340.418904l0 0.146588c-0.523528-0.146588-0.921409-0.146588-1.465879-0.146588L648.211538 340.418904z" fill="#C63232" p-id="5498" data-darkreader-inline-fill="" style="--darkreader-inline-fill: var(--darkreader-text-c63232, #d24c4c);"></path><path d="M598.581075 707.349271c1.151762 0.062823 2.261641 0.104706 4.083519 0.251293 4.355754 0.335058 8.167038-2.931757 8.460214-7.329393 0.355999-4.355754-2.952698-8.167038-7.329393-8.418332-1.86376-0.18847-3.057404-0.272235-4.313871-0.314117-4.355754-0.272235-8.125156 3.057404-8.376449 7.413158C590.874742 703.349516 594.20438 707.13986 598.581075 707.349271z" fill="#C63232" p-id="5499" data-darkreader-inline-fill="" style="--darkreader-inline-fill: var(--darkreader-text-c63232, #d24c4c);"></path><path d="M615.731855 779.994029c-17.423015 0.146588-34.134031 0.418822-50.300579 0.816704l0-0.816704L615.731855 779.994029z" fill="#C63232" p-id="5500" data-darkreader-inline-fill="" style="--darkreader-inline-fill: var(--darkreader-text-c63232, #d24c4c);"></path><path d="M624.171128 779.994029l0 0.146588c-5.444692-0.146588-8.418332-0.146588-8.418332-0.146588L624.171128 779.994029z" fill="#C63232" p-id="5501" data-darkreader-inline-fill="" style="--darkreader-inline-fill: var(--darkreader-text-c63232, #d24c4c);"></path><path d="M633.950633 691.622487l0 0.104706c-0.439764-0.104706-0.837645-0.104706-1.382114-0.104706L633.950633 691.622487z" fill="#C63232" p-id="5502" data-darkreader-inline-fill="" style="--darkreader-inline-fill: var(--darkreader-text-c63232, #d24c4c);"></path><path d="M442.84194 729.253686c1.151762-0.041882 2.261641-0.083764 4.083519-0.083764 4.355754-0.062823 7.873862-3.643755 7.811039-8.062333-0.041882-4.355754-3.643755-7.873862-8.02045-7.769157-1.884701 0-3.078345 0-4.334813 0.083764-4.355754 0.125647-7.83198 3.748461-7.706333 8.125156C434.821489 725.924048 438.465245 729.421215 442.84194 729.253686z" fill="#C63232" p-id="5503" data-darkreader-inline-fill="" style="--darkreader-inline-fill: var(--darkreader-text-c63232, #d24c4c);"></path><path d="M476.76656 710.511381 476.76656 710.67891 475.405387 710.67891Z" fill="#C63232" p-id="5504" data-darkreader-inline-fill="" style="--darkreader-inline-fill: var(--darkreader-text-c63232, #d24c4c);"></path><path d="M755.911736 726.217223c1.130821 0.146588 2.2407 0.251293 4.062578 0.544469 4.29293 0.628234 8.334567-2.345406 8.962801-6.70116 0.628234-4.334813-2.366347-8.334567-6.70116-8.962801-1.842819-0.314117-3.036463-0.460705-4.271989-0.607293-4.334813-0.56541-8.313626 2.450111-8.899978 6.805865C748.51952 721.652058 751.576924 725.651813 755.911736 726.217223z" fill="#C63232" p-id="5505" data-darkreader-inline-fill="" style="--darkreader-inline-fill: var(--darkreader-text-c63232, #d24c4c);"></path><path d="M777.271682 786.799894l-0.167529 1.884701c-20.647948-1.884701-40.353545-3.392462-58.593264-4.607047l0.167529-1.507761L777.271682 786.799894z" fill="#C63232" p-id="5506" data-darkreader-inline-fill="" style="--darkreader-inline-fill: var(--darkreader-text-c63232, #d24c4c);"></path><path d="M603.355651 440.62218c0 0-8.837154 0-23.66347 0.418822l0 1.48682 58.739852 0 0-1.235526C627.144768 440.894415 615.43868 440.747827 603.355651 440.62218z" fill="#C63232" p-id="5507" data-darkreader-inline-fill="" style="--darkreader-inline-fill: var(--darkreader-text-c63232, #d24c4c);"></path><path d="M473.374098 785.019898l0 0.816704-58.467617 5.02587 0-1.10988C433.125258 788.014479 452.558621 786.402012 473.374098 785.019898z" p-id="5508"></path></svg>